<?xml version="1.0" encoding="UTF-8" standalone="no"?>
<!-- Created with Inkscape (http://www.inkscape.org/) -->

<svg
   xmlns:dc="http://purl.org/dc/elements/1.1/"
   xmlns:cc="http://creativecommons.org/ns#"
   xmlns:rdf="http://www.w3.org/1999/02/22-rdf-syntax-ns#"
   xmlns:svg="http://www.w3.org/2000/svg"
   xmlns="http://www.w3.org/2000/svg"
   xmlns:sodipodi="http://sodipodi.sourceforge.net/DTD/sodipodi-0.dtd"
   xmlns:inkscape="http://www.inkscape.org/namespaces/inkscape"
   version="1.1"
   width="256"
   height="256"
   id="svg2993"
   sodipodi:docname="redmine-issues-unread-symbolic.svg"
   inkscape:version="0.92.5 (2060ec1f9f, 2020-04-08)">
  <sodipodi:namedview
     pagecolor="#ffffff"
     bordercolor="#666666"
     borderopacity="1"
     objecttolerance="10"
     gridtolerance="10000"
     guidetolerance="10"
     inkscape:pageopacity="0"
     inkscape:pageshadow="2"
     inkscape:window-width="2560"
     inkscape:window-height="1369"
     id="namedview13"
     showgrid="true"
     showguides="false"
     inkscape:zoom="1.3037281"
     inkscape:cx="82.711044"
     inkscape:cy="171.39491"
     inkscape:window-x="0"
     inkscape:window-y="34"
     inkscape:window-maximized="1"
     inkscape:current-layer="svg2993">
    <inkscape:grid
       type="xygrid"
       id="grid3728" />
  </sodipodi:namedview>
  <defs
     id="defs33" />
  <metadata
     id="metadata2998">
    <rdf:RDF>
      <cc:Work
         rdf:about="">
        <dc:format>image/svg+xml</dc:format>
        <dc:type
           rdf:resource="http://purl.org/dc/dcmitype/StillImage" />
        <dc:title></dc:title>
      </cc:Work>
    </rdf:RDF>
  </metadata>
  <g
     transform="matrix(16,0,0,16,0,0)"
     id="layer1"
     style="display:inline">
    <path
       d="M 3.8,12.2 0.5,12.2 0.7,9 3.9,9.9 z"
       id="path3959"
       style="fill:#FFA726;fill-opacity:1;stroke:none" />
    <path
       d="m 5.8,1.7 4.4,0 -0.9,2.6 -2.6,0 z"
       id="path3961"
       style="fill:#FFA726;fill-opacity:1;stroke:none" />
    <path
       d="M 4,9 1,7.9 1.8,5.5 4.6,6.9 z"
       id="path3963"
       style="fill:#FFA726;fill-opacity:1;stroke:none" />
    <path
       d="M 5,6 2.4,4.6 4.5,2.2 6.1,4.6 z"
       id="path3965"
       style="fill:#FFA726;fill-opacity:1;stroke:none" />
    <path
       d="M 11,6 13.6,4.6 11.5,2.2 9.9,4.6 z"
       id="path3965-1"
       style="fill:#FFA726;fill-opacity:1;stroke:none" />
    <path
       d="M 12,9 15,7.9 14.2,5.5 11.4,6.9 z"
       id="path3963-3"
       style="fill:#FFA726;fill-opacity:1;stroke:none" />
    <path
       d="m 12.2,12.2 3.3,0 L 15.3,9 12.1,9.9 z"
       id="path3959-9"
       style="fill:#FFA726;fill-opacity:1;stroke:none" />
  </g>
  <g
     transform="matrix(5.2971136,0,0,5.2971136,83.04686,115.52326)"
     id="layer1-3">
    <g
       transform="translate(-301,-257)"
       id="layer9"
       style="color:#bebebe;display:inline;overflow:visible;visibility:visible;fill:#bebebe;fill-opacity:1;fill-rule:nonzero;stroke:none;stroke-width:1;marker:none;enable-background:accumulate">
      <path
         d="m 308.92,257.09 c -0.5255,-0.0286 -1.0382,0.28305 -1.4375,0.96875 l -6.25,11.594 c -0.53,0.97 0.05,2.35 1.1,2.35 h 13.156 c 0.98172,0 1.9031,-1.1594 1.2188,-2.3438 l -6.32,-11.54 c -0.39872,-0.64617 -0.94325,-1.0026 -1.4688,-1.0312 z m -0.0313,3.9375 c 0.54448,-0.0172 1.0485,0.48677 1.0312,1.0312 v 3.9375 c 0.007,0.52831 -0.47163,1.0142 -1,1.0142 -0.52836,0 -1.0075,-0.48593 -1,-1.0142 v -3.9375 c -0.008,-0.4666 0.3541,-0.91253 0.8125,-1 0.0511,-0.0145 0.10345,-0.025 0.15625,-0.0313 z m -0.9687,6.9688 h 2 v 2 h -2 z"
         inkscape:connector-curvature="0"
         id="path18112"
         style="color:#bebebe;display:inline;overflow:visible;visibility:visible;fill:#bebebe;fill-opacity:1;fill-rule:nonzero;stroke:none;stroke-width:1;marker:none;enable-background:accumulate" />
    </g>
  </g>
</svg>
